<svg width="39" height="39" xmlns="http://www.w3.org/2000/svg" xmlns:xlink="http://www.w3.org/1999/xlink" xml:space="preserve" overflow="hidden"><defs><clipPath id="clip0"><rect x="1977" y="1559" width="39" height="39"/></clipPath></defs><g clip-path="url(#clip0)" transform="translate(-1977 -1559)"><path d="M1987.57 1576C1988.42 1573.19 1990.88 1570.98 1994 1570.21L1994 1567C1988.96 1567.88 1984.97 1571.46 1984 1576L1987.57 1576Z" fill-rule="evenodd"/><path d="M1987.57 1581 1984 1581C1984.97 1586.04 1988.96 1590.03 1994 1591L1994 1587.43C1990.88 1586.58 1988.42 1584.12 1987.57 1581Z" fill-rule="evenodd"/><path d="M2005.43 1581C2004.58 1584.12 2002.12 1586.58 1999 1587.43L1999 1591C2004.04 1590.03 2008.03 1586.04 2009 1581L2005.43 1581Z" fill-rule="evenodd"/><path d="M2005.43 1576 2009 1576C2008.03 1571.46 2004.04 1567.88 1999 1567L1999 1570.21C2002.12 1570.98 2004.58 1573.19 2005.43 1576Z" fill-rule="evenodd"/><path d="M1996.5 1575.78C1995 1575.78 1993.78 1577 1993.78 1578.5 1993.78 1580 1995 1581.22 1996.5 1581.22 1998 1581.22 1999.22 1580 1999.22 1578.5 1999.22 1577 1998 1575.78 1996.5 1575.78ZM1995.55 1559 1997.45 1559 1997.45 1573.9C1999.28 1574.28 2000.72 1575.72 2001.1 1577.55L2016 1577.55 2016 1579.45 2001.1 1579.45C2000.72 1581.28 1999.28 1582.72 1997.45 1583.1L1997.45 1598 1995.55 1598 1995.55 1583.1C1993.72 1582.72 1992.28 1581.28 1991.9 1579.45L1977 1579.45 1977 1577.55 1991.9 1577.55C1992.28 1575.72 1993.72 1574.28 1995.55 1573.9Z" fill-rule="evenodd"/></g></svg>