<?xml version="1.0" encoding="UTF-8" standalone="no"?>
<svg
   width="124.99999"
   height="120"
   xml:space="preserve"
   overflow="hidden"
   version="1.1"
   id="svg5"
   sodipodi:docname="Bullseye 2.svg"
   viewBox="0 0 520.8333 500"
   inkscape:export-filename="Bullseye 4.svg"
   inkscape:export-xdpi="56"
   inkscape:export-ydpi="56"
   xmlns:inkscape="http://www.inkscape.org/namespaces/inkscape"
   xmlns:sodipodi="http://sodipodi.sourceforge.net/DTD/sodipodi-0.dtd"
   xmlns="http://www.w3.org/2000/svg"
   xmlns:svg="http://www.w3.org/2000/svg"><sodipodi:namedview
     id="namedview5"
     pagecolor="#ffffff"
     bordercolor="#000000"
     borderopacity="0.25"
     inkscape:showpageshadow="2"
     inkscape:pageopacity="0.0"
     inkscape:pagecheckerboard="0"
     inkscape:deskcolor="#d1d1d1"
     showgrid="false" /><defs
     id="defs1"><clipPath
       id="clip0"><rect
         x="1977"
         y="1559"
         width="39"
         height="39"
         id="rect1" /></clipPath></defs><g
     clip-path="url(#clip0)"
     transform="matrix(0.3405491,0,0,0.35980747,-671.83295,-559.46021)"
     id="g5"
     style="stroke-width:2.85677"><path
       d="m 1987.57,1576 c 0.85,-2.81 3.31,-5.02 6.43,-5.79 V 1567 c -5.04,0.88 -9.03,4.46 -10,9 z"
       fill-rule="evenodd"
       id="path1"
       style="stroke-width:2.85677" /><path
       d="M 1987.57,1581 H 1984 c 0.97,5.04 4.96,9.03 10,10 v -3.57 c -3.12,-0.85 -5.58,-3.31 -6.43,-6.43 z"
       fill-rule="evenodd"
       id="path2"
       style="stroke-width:2.85677" /><path
       d="m 2005.43,1581 c -0.85,3.12 -3.31,5.58 -6.43,6.43 v 3.57 c 5.04,-0.97 9.03,-4.96 10,-10 z"
       fill-rule="evenodd"
       id="path3"
       style="stroke-width:2.85677" /><path
       d="m 2005.43,1576 h 3.57 c -0.97,-4.54 -4.96,-8.12 -10,-9 v 3.21 c 3.12,0.77 5.58,2.98 6.43,5.79 z"
       fill-rule="evenodd"
       id="path4"
       style="stroke-width:2.85677" /><path
       d="m 1996.5,1575.78 c -1.5,0 -2.72,1.22 -2.72,2.72 0,1.5 1.22,2.72 2.72,2.72 1.5,0 2.72,-1.22 2.72,-2.72 0,-1.5 -1.22,-2.72 -2.72,-2.72 z m -0.95,-16.78 h 1.9 v 14.9 c 1.83,0.38 3.27,1.82 3.65,3.65 h 14.9 v 1.9 h -14.9 c -0.38,1.83 -1.82,3.27 -3.65,3.65 v 14.9 h -1.9 v -14.9 c -1.83,-0.38 -3.27,-1.82 -3.65,-3.65 H 1977 v -1.9 h 14.9 c 0.38,-1.83 1.82,-3.27 3.65,-3.65 z"
       fill-rule="evenodd"
       id="path5"
       style="stroke-width:2.85677" /></g></svg>
