<svg width="39" height="39" xmlns="http://www.w3.org/2000/svg" xmlns:xlink="http://www.w3.org/1999/xlink" xml:space="preserve" overflow="hidden"><defs><clipPath id="clip0"><rect x="1708" y="1623" width="39" height="39"/></clipPath></defs><g clip-path="url(#clip0)" transform="translate(-1708 -1623)"><path d="M1743.58 1640 1747 1640C1746.49 1635.68 1744.56 1631.69 1741.44 1628.56 1738.31 1625.44 1734.32 1623.51 1730 1623L1730 1626.42C1737.01 1627.44 1742.56 1632.99 1743.58 1640Z" fill-rule="evenodd"/><path d="M1725 1626.42 1725 1623C1720.68 1623.51 1716.69 1625.44 1713.56 1628.56 1710.44 1631.69 1708.51 1635.68 1708 1640L1711.42 1640C1712.44 1632.99 1717.99 1627.44 1725 1626.42Z" fill-rule="evenodd"/><path d="M1730 1658.58 1730 1662C1734.32 1661.49 1738.31 1659.56 1741.44 1656.44 1744.56 1653.31 1746.49 1649.32 1747 1645L1743.58 1645C1742.56 1652.01 1737.01 1657.56 1730 1658.58Z" fill-rule="evenodd"/><path d="M1711.42 1645 1708 1645C1708.51 1649.32 1710.44 1653.31 1713.56 1656.44 1716.69 1659.56 1720.68 1661.49 1725 1662L1725 1658.58C1717.99 1657.56 1712.44 1652.01 1711.42 1645Z" fill-rule="evenodd"/><path d="M1718.57 1640C1719.42 1636.88 1721.88 1634.42 1725 1633.57L1725 1630C1719.96 1630.97 1715.97 1634.96 1715 1640L1718.57 1640Z" fill-rule="evenodd"/><path d="M1718.57 1645 1715 1645C1715.97 1649.54 1719.96 1653.13 1725 1654L1725 1650.79C1721.88 1650.02 1719.42 1647.81 1718.57 1645Z" fill-rule="evenodd"/><path d="M1736.43 1645C1735.58 1647.81 1733.12 1650.02 1730 1650.79L1730 1654C1735.04 1653.13 1739.03 1649.54 1740 1645L1736.43 1645Z" fill-rule="evenodd"/><path d="M1736.43 1640 1740 1640C1739.03 1634.96 1735.04 1630.97 1730 1630L1730 1633.57C1733.12 1634.42 1735.58 1636.88 1736.43 1640Z" fill-rule="evenodd"/><path d="M1727.5 1639.78C1726 1639.78 1724.78 1641 1724.78 1642.5 1724.78 1644 1726 1645.22 1727.5 1645.22 1729 1645.22 1730.22 1644 1730.22 1642.5 1730.22 1641 1729 1639.78 1727.5 1639.78ZM1726.55 1623 1728.45 1623 1728.45 1637.9C1730.28 1638.28 1731.72 1639.72 1732.1 1641.55L1747 1641.55 1747 1643.45 1732.1 1643.45C1731.72 1645.28 1730.28 1646.72 1728.45 1647.1L1728.45 1662 1726.55 1662 1726.55 1647.1C1724.72 1646.72 1723.28 1645.28 1722.9 1643.45L1708 1643.45 1708 1641.55 1722.9 1641.55C1723.28 1639.72 1724.72 1638.28 1726.55 1637.9Z" fill-rule="evenodd"/></g></svg>