<svg width="153" height="154" xmlns="http://www.w3.org/2000/svg" xmlns:xlink="http://www.w3.org/1999/xlink" xml:space="preserve" overflow="hidden"><defs><clipPath id="clip0"><rect x="0" y="208" width="153" height="154"/></clipPath></defs><g clip-path="url(#clip0)" transform="matrix(1 0 0 1 0 -208)"><path d="M43.5741 276C46.7942 263.835 56.1468 254.236 68.0001 250.931L68.0001 237C48.8336 240.792 33.695 256.329 29.9999 276L43.5741 276Z" fill-rule="evenodd"/><path d="M43.5741 294 29.9999 294C33.695 313.671 48.8336 329.208 68.0001 333L68.0001 319.069C56.1468 315.764 46.7939 306.165 43.5741 294Z" fill-rule="evenodd"/><path d="M111.069 294C107.764 306.165 98.1652 315.764 85.9999 319.069L85.9999 333C105.671 329.208 121.208 313.671 125 294L111.069 294Z" fill-rule="evenodd"/><path d="M111.069 276 125 276C121.208 256.329 105.671 240.792 85.9999 237L85.9999 250.931C98.1652 254.236 107.764 263.835 111.069 276Z" fill-rule="evenodd"/><path d="M76.5 274.27C70.6122 274.27 65.8392 279.074 65.8392 285 65.8392 290.926 70.6122 295.73 76.5 295.73 82.3878 295.73 87.1608 290.926 87.1608 285 87.1608 279.074 82.3878 274.27 76.5 274.27ZM72.7648 208 80.2351 208 80.2351 266.854C87.3955 268.344 93.0475 274.033 94.5285 281.24L153 281.24 153 288.759 94.5289 288.759C93.0471 295.967 87.3955 301.656 80.2351 303.146L80.2351 362 72.7648 362 72.7648 303.147C65.6044 301.655 59.9524 295.967 58.4715 288.76L0 288.76 0 281.24 58.4715 281.24C59.9528 274.033 65.6044 268.344 72.7648 266.854Z" fill-rule="evenodd"/></g></svg>