<svg width="302" height="235" xmlns="http://www.w3.org/2000/svg" xmlns:xlink="http://www.w3.org/1999/xlink" overflow="hidden"><defs><clipPath id="clip0"><rect x="0" y="0" width="302" height="235"/></clipPath></defs><g clip-path="url(#clip0)"><rect x="0" y="0" width="302" height="234.591" fill="#FFFFFF" fill-opacity="0"/><path id="bull" d="M10.0707 3.00763C9.13851 6.44751 6.43123 9.16154 3.00005 10.0962L3.00005 14.0354C8.54819 12.9631 12.9303 8.56983 14 3.00763L10.0707 3.00763Z" fill-rule="evenodd"/><path d="M1.14441e-05-3.07358C-1.6932-3.07358-3.06583-1.69748-3.06583 1.14441e-05-3.06583 1.6975-1.6932 3.0736 1.14441e-05 3.0736 1.69323 3.0736 3.06586 1.6975 3.06586 1.14441e-05 3.06586-1.69748 1.69323-3.07358 1.14441e-05-3.07358ZM-1.07416-22.0555 1.07416-22.0555 1.07416-5.19775C3.13336-4.77078 4.75877-3.14127 5.18466-1.0771L22-1.0771 22 1.07665 5.18477 1.07665C4.75865 3.14127 3.13336 4.77079 1.07416 5.19776L1.07416 22.0555-1.07416 22.0555-1.07416 5.19787C-3.13336 4.77067-4.75876 3.14127-5.18466 1.07687L-22 1.07687-22-1.07687-5.18466-1.07687C-4.75865-3.14127-3.13336-4.77078-1.07416-5.19775Z" fill-rule="evenodd"/></g></svg>