<?xml version="1.0" encoding="UTF-8" standalone="no"?>
<!-- Created with Inkscape (http://www.inkscape.org/) -->

<svg
   width="481"
   height="103"
   viewBox="0 0 481 103"
   version="1.1"
   id="svg1"
   inkscape:version="1.3.2 (091e20e, 2023-11-25, custom)"
   sodipodi:docname="Bulllseye SVG Horizontal.svg"
   inkscape:export-filename="Bulllseye SVG Horizontal.svg"
   inkscape:export-xdpi="96"
   inkscape:export-ydpi="96"
   xmlns:inkscape="http://www.inkscape.org/namespaces/inkscape"
   xmlns:sodipodi="http://sodipodi.sourceforge.net/DTD/sodipodi-0.dtd"
   xmlns="http://www.w3.org/2000/svg"
   xmlns:svg="http://www.w3.org/2000/svg">
  <sodipodi:namedview
     id="namedview1"
     pagecolor="#ffffff"
     bordercolor="#000000"
     borderopacity="0.25"
     inkscape:showpageshadow="2"
     inkscape:pageopacity="0.0"
     inkscape:pagecheckerboard="0"
     inkscape:deskcolor="#d1d1d1"
     inkscape:document-units="px"
     inkscape:zoom="2.0888418"
     inkscape:cx="208.48874"
     inkscape:cy="41.410508"
     inkscape:window-width="1920"
     inkscape:window-height="1025"
     inkscape:window-x="-8"
     inkscape:window-y="-8"
     inkscape:window-maximized="1"
     inkscape:current-layer="layer1" />
  <defs
     id="defs1" />
  <g
     inkscape:label="Layer 1"
     inkscape:groupmode="layer"
     id="layer1"
     transform="translate(4.1884389,4.1994111)">
    <g
       transform="matrix(0.20060856,0,0,0.20060856,-4.1413805,-4.1523527)"
       id="bull"
       inkscape:label="#bull"
       style="stroke-width:1.3189">
      <path
         d="m -9.71343,-2.99999 c 1.01688,-3.43121 3.9703,-6.13851 7.71344,-7.07061 V -14 C -8.05254,-12.9304 -12.8331,-8.54816 -14,-2.99999 Z"
         fill-rule="evenodd"
         id="path1"
         style="stroke-width:1.3189" />
      <path
         d="M -9.71343,3 H -14 c 1.1669,5.54823 5.94746,9.9305 12.00001,11 V 10.0707 C -5.74313,9.13868 -8.69666,6.43123 -9.71343,3 Z"
         fill-rule="evenodd"
         id="path2"
         style="stroke-width:1.3189" />
      <path
         d="M 10.0707,3 C 9.1385,6.43123 6.4312,9.13845 3,10.0707 V 14 C 8.54817,12.9305 12.9304,8.54823 14,3 Z"
         fill-rule="evenodd"
         id="path3"
         style="stroke-width:1.3189" />
      <path
         d="M 10.0707,-2.99999 H 14 C 12.9304,-8.54816 8.54817,-12.9304 3,-14 v 3.9294 c 3.4312,0.932 6.13861,3.6394 7.0707,7.07061 z"
         fill-rule="evenodd"
         id="path4"
         style="stroke-width:1.3189" />
      <path
         d="M 1.14441e-5,-3.06584 C -1.69321,-3.06584 -3.06584,-1.69321 -3.06584,1.14441e-5 -3.06584,1.69323 -1.69321,3.06586 1.14441e-5,3.06586 1.69323,3.06586 3.06586,1.69323 3.06586,1.14441e-5 3.06586,-1.69321 1.69323,-3.06584 1.14441e-5,-3.06584 Z M -1.07416,-22 h 2.14832 v 16.81533 c 2.0592,0.4259 3.68461,2.05131 4.11051,4.11028 H 22 V 1.07394 H 5.18478 C 4.75866,3.13336 3.13336,4.75877 1.07416,5.18467 V 22 H -1.07416 V 5.18478 C -3.13336,4.75866 -4.75877,3.13336 -5.18467,1.07416 H -22 v -2.14832 h 16.81533 c 0.42601,-2.0592 2.05131,-3.68461 4.11051,-4.11051 z"
         fill-rule="evenodd"
         id="path5"
         style="stroke-width:1.3189" />
    </g>
  </g>
</svg>
